<?xml version="1.0" standalone="no"?><!DOCTYPE svg PUBLIC "-//W3C//DTD SVG 1.1//EN" "http://www.w3.org/Graphics/SVG/1.1/DTD/svg11.dtd"><svg t="1754196747407" class="icon" viewBox="0 0 1024 1024" version="1.1" xmlns="http://www.w3.org/2000/svg" p-id="4539" xmlns:xlink="http://www.w3.org/1999/xlink" width="200" height="200"><path d="M204.8 0h614.4c112.64 0 204.8 92.16 204.8 204.8v614.4c0 112.64-92.16 204.8-204.8 204.8H204.8c-112.64 0-204.8-92.16-204.8-204.8V204.8c0-112.64 92.16-204.8 204.8-204.8" fill="#F40009" p-id="4540"></path><path d="M723.0464 148.992l-203.4688 142.0032 203.4688 138.0096V148.992z m12.5952 0v280.0128l196.5312-142.0032-196.5312-138.0096z m4.7104 295.3216l191.8208 140.0064V305.3568l-191.8208 138.9568z m-4.7104 14.3616V738.304l196.5312-140.8-196.5312-138.8288z m-205.1072 141.312l191.488-141.312 1.024 279.6288-192.512-138.3168z m-11.9808 12.032v280.32l196.4288-142.336-196.4288-137.984z m-209.7664 138.3168l197.12 142.0032-1.024-280.32-196.096 138.3168z m-6.656-290.7136V738.304l190.7968-139.3408-190.7968-139.3408z m-15.36 0V738.304l-194.4832-142.336 194.4832-136.3456z m-194.4832-153.3184v278.016l191.1552-138.9824-191.1552-139.008z m209.8432-157.312v280.0128l200.4224-138.6496-200.4224-141.3632z m-15.36 0l-194.4832 137.344 194.4832 142.6688V148.992z" fill="#FFFFFF" p-id="4541"></path><path d="M143.744 415.9744c0.768-10.624 8.8832-19.0208 18.5088-20.0192 11.0848-1.1776 21.9648 7.6288 22.9632 20.0192a22.3232 22.3232 0 0 1 12.6208 5.4272c1.92 1.792 4.608 4.9408 7.2704 16.7424 2.2784 10.0096 2.7904 18.4064 3.6352 31.7952a16.6656 16.6656 0 0 1-14.2336 12.7488H135.0656a17.8176 17.8176 0 0 1-14.976-14.464c-0.1536-2.3296-0.9728-26.4704 5.9904-39.2704 1.0752-1.8944 2.9696-5.4784 7.0144-8.4992a24.6528 24.6528 0 0 1 10.6496-4.48m56.192-89.216c0.2304 0.384 4.096 6.7072 11.4688 7.0144a14.208 14.208 0 0 0 10.496-4.4288 16.3072 16.3072 0 0 0 12.4928 3.712 16.128 16.128 0 0 0 10.496-6.272c0.512 0.3584 6.272 3.968 11.2384 1.5104 5.3504-2.688 5.9904-9.9584 4.992-14.2592-0.6144-2.4832-1.6384-3.328-4.5312-7.5008a556.6976 556.6976 0 0 1-9.0368-15.488 1118.3104 1118.3104 0 0 1-8.1408-14.2848c0.9472-4.7104 2.048-9.3696 3.2512-13.9776 1.3056-5.12 2.0992-7.424 1.024-10.24-0.3584-0.9472-0.7168-1.536-3.7376-6.2976 2.176-4.5056 2.048-8.5248 0.2304-9.7792-1.152-0.768-2.7648-0.256-3.0208-0.2304-2.6368 0.7936-4.5056 4.096-4.5056 8.2432a13.0816 13.0816 0 0 0-10.24 5.76 15.0016 15.0016 0 0 0-10.752-5.76c0.1536-3.8912-1.4336-7.04-3.9936-7.9872-0.3584-0.1024-1.8432-0.7168-3.0208-0.0768-1.9712 1.0752-2.5088 5.12-0.6656 10.0864a21.376 21.376 0 0 0-2.7392 7.5008c-0.8448 4.864 0.2304 9.1136 1.024 11.9808 1.408 5.4272 2.9184 6.528 2.4832 9.7792a11.5712 11.5712 0 0 1-3.2512 6.4768c-6.1952 11.136-12.3392 22.3488-18.5344 33.4848a10.88 10.88 0 0 0 5.0176 11.7248 10.5984 10.5984 0 0 0 11.9552-0.6912m187.264-86.9376c-0.3328 6.912-6.7584 12.3904-14.6176 12.3904-7.936 0-14.3104-5.4784-14.6432-12.3904-16.5376 2.816-22.6304 8.064-35.4048 14.5408a2.688 2.688 0 0 0-0.64 4.3008l10.3168 15.36 5.4272-5.4784v55.0912c0 3.1232 2.5088 5.6064 5.5808 5.6064h58.1632c3.328 0 6.0416-2.7392 6.0416-6.0672v-54.7072l5.4272 5.504 9.728-12.6976c1.6128-1.6128 2.2016-6.3744 0.1024-7.3984-12.4416-6.2976-20.352-12.2112-35.4816-14.0544" fill="#F40009" p-id="4542"></path><path d="M151.04 415.744h27.4688s-2.7392-11.9808-13.7472-11.9808c-11.008 0-13.7472 11.9808-13.7472 11.9808" fill="#FFFFFF" p-id="4543"></path><path d="M560.128 712.704s7.168-14.4384 20.992-14.4384c25.9328-0.0512 28.7232 14.4896 28.7232 14.4896h-49.7408v-0.0256z m-2.56 6.2976h55.6544c1.6384 0 3.0464-1.1264 3.2256-2.6112 0.1792-1.7408-0.512-3.6352-4.8128-3.6352h-54.016a3.1488 3.1488 0 0 0-3.2 3.072 3.1744 3.1744 0 0 0 3.2 3.1744h-0.0256z m-5.0432 13.1584v49.8688c0.0512 4.608 3.7632 8.32 8.3456 8.3456h48.896a7.0144 7.0144 0 0 0 7.0656-7.04v-50.9952a5.3504 5.3504 0 0 0-5.376-5.3504h-53.8112c-2.7648 0-5.12 2.3296-5.12 5.1712z m-168.7552 16.3328c0.512-3.8144 3.6352-24.4224 22.2464-37.9904a55.6544 55.6544 0 0 1 51.8912-7.1168c9.2928 3.712 16.64 10.24 17.8176 11.3152 4.3264 3.968 8.0128 7.296 10.752 12.9792 6.4768 13.5424 4.352 20.736 6.4768 20.736a26.624 26.624 0 0 0-27.1616 0 25.2416 25.2416 0 0 0-22.0416-2.9696v42.496a18.688 18.688 0 0 1-4.096 6.912 19.2768 19.2768 0 0 1-19.0976 5.12c-9.5488-2.9184-13.2864-12.9024-13.1584-17.28 0.0512-1.28 0.384-2.56 0.9472-3.712 0.2304-0.3584 2.2016-3.9424 5.2224-3.84 2.7648 0.1536 4.608 3.2 5.248 5.0176 0.896 2.4576-0.1792 3.3536 0.768 5.0176 1.536 2.8672 6.656 4.1984 9.216 2.5088 1.3312-0.8704 3.9424-5.0688 2.9696-3.7376l1.28-38.8096a26.2656 26.2656 0 0 0-21.9904 3.2256 27.2128 27.2128 0 0 0-13.7216-3.7376 28.6208 28.6208 0 0 0-13.568 3.8656z m54.4512-58.496l-5.2224 6.7072h10.7008l-5.4784-6.7072z m-109.1328-57.0112h87.168a7.2704 7.2704 0 0 0 5.4784-5.7088v-58.2656a9.6768 9.6768 0 0 0-2.5088-3.5072 9.728 9.728 0 0 0-5.76-2.2784h-13.4912c-0.9216-1.9456-2.5344-2.9696-6.272-8.2176-1.3568-1.92-3.5584-2.3808-4.992-2.9696h-32.1792c-1.1264 0.5888-2.9696 1.024-3.7376 2.5088-2.7392 5.2224-5.248 6.6048-6.0416 8.7552-5.888 0.2304-11.8016 0.4608-17.7152 0.768a6.656 6.656 0 0 0-5.2992 5.9392v57.728a6.8608 6.8608 0 0 0 5.376 5.248h-0.0512z m-75.1872 3.5328h6.5024s-0.768-29.44 0-34.048c1.7152-9.984 11.0592-27.0336 9.984-33.2288-2.2528-13.2096-14.7456-21.504-16.4864-20.736-1.7152 0.768-16.4608 17.28-20.992 29.4912-4.5312 12.2112-12.7488 29.2608-13.9776 29.4912-1.28 0.2304-14.4896 2.0224-26.496 6.528-11.0848 4.1216-20.0192 8.4736-17.9712 12.4928 2.0224 3.968 13.7472 9.984 30.2336 9.984 19.7376 0 26.4704-1.2544 29.9776-16.0256 3.4816-14.464 3.84-21.3248 10.24-27.9808 0.4608-0.4864 4.1216-4.2496 6.272-3.2768 0 0 0.4608 0.256 2.4832 3.2768l0.256 44.032z" fill="#F40009" p-id="4544"></path><path d="M678.7072 629.7856a35.2768 35.2768 0 0 1-17.7408 5.9904 35.328 35.328 0 0 1-21.4784-6.016l4.2496 15.2064a5.1712 5.1712 0 0 0 4.9664 3.8144h21.504a4.5568 4.5568 0 0 0 4.4032-3.4048l4.096-15.5904z m-39.168-66.816c2.688-1.8432 9.0112-5.5296 17.7408-5.9904 10.9568-0.5888 18.8672 4.224 21.504 6.016l-4.2496-15.2064a5.1712 5.1712 0 0 0-4.992-3.7888h-21.504a4.5312 4.5312 0 0 0-4.4032 3.3792l-4.096 15.616z m-51.8912 140.1856h-4.352a2.7136 2.7136 0 0 1-2.7392-2.688v-5.5296c0-1.4848 1.2032-2.7392 2.7648-2.7392h4.352c1.4848 0 2.7136 1.1776 2.7136 2.7392v5.4784a2.7136 2.7136 0 0 1-2.688 2.7392h-0.0512z" fill="#F40009" p-id="4545"></path><path d="M834.816 641.7408h-63.1552a8.0128 8.0128 0 0 1-8.0384-7.9872v-66.0736c0-1.7664 1.4336-3.2 3.2256-3.2h73.2928c1.6384 0 2.944 1.3056 2.944 2.9184v66.0992a8.2688 8.2688 0 0 1-8.2688 8.2432z m-2.2016-85.4784h-3.6352a2.688 2.688 0 0 1-2.688-2.6624v-11.2384c0-1.4592 1.2032-2.6624 2.688-2.6624h3.6352c1.4592 0 2.6624 1.2032 2.6624 2.6624v11.2384a2.7648 2.7648 0 0 1-2.6624 2.6624z m-28.0576 0h-3.4304a2.56 2.56 0 0 1-2.56-2.56v-14.1824a2.56 2.56 0 0 1 2.56-2.56h3.4304a2.56 2.56 0 0 1 2.56 2.56v14.1824a2.56 2.56 0 0 1-2.56 2.56z m-27.776 0h-3.2256a2.4064 2.4064 0 0 1-2.3552-2.4064v-11.7248c0-1.28 1.0496-2.3552 2.3552-2.3552h3.2256c1.3312 0 2.3808 1.0496 2.3808 2.3552v11.7248a2.4064 2.4064 0 0 1-2.3808 2.4064z m-149.248 39.6032a31.3856 31.3856 0 1 0 62.72 0 31.3856 31.3856 0 1 0-62.72 0z" fill="#F40009" p-id="4546"></path><path d="M761.1392 292.096a42.624 42.624 0 1 0 85.2224 0 42.6496 42.6496 0 1 0-85.248 0z m43.4432 148.7872a7.936 7.936 0 0 0 0.128 7.8592c3.328 5.7088 10.752 13.8752 19.3024 19.5584 11.4688 7.4752 20.736 5.9904 20.736 5.9904s14.2336 12.9792 18.5088 14.0032c4.2752 1.024 5.4784-1.28 5.4784-4.7616v-14.0032s9.984-3.7632 15.232-9.0112c5.248-5.248 8.2176-8.7552 11.264-7.7312 2.9952 1.024 10.4448 11.264 16.2304 12.288 5.76 0.9728 9.984-2.5344 7.9616-8.5248-2.0224-6.0416-5.4784-11.6992-5.4784-11.6992s6.016-8.0896 6.016-13.824c0-5.76-5.76-10.24-11.008-7.5008-5.2224 2.7648-11.008 11.9808-14.464 11.9808-3.456 0-10.7008-9.6512-17.7408-12.8-7.0144-3.1744-8.4992-4.1984-8.4992-4.1984s1.7408-14.976 0-17.2544c-1.7408-2.2784-8.192 0.256-12.2624 3.2768-4.0448 3.0464-11.008 10.24-11.008 10.24s-12.4928-0.256-26.9568 9.7792c-6.3744 4.4032-10.9568 11.776-13.4656 16.3328h0.0256z m37.0176 142.336s14.5664 1.6384 19.456 9.7792c5.4528 9.1392 2.6624 19.7888-3.5072 24.7296-6.5024 5.248-14.464 5.248-14.464 5.248v-7.5008s13.7216-3.9936 12.4928-13.5168c-1.28-9.5488-13.9776-11.008-13.9776-11.008v-7.7056z" fill="#F40009" p-id="4547"></path><path d="M637.8752 329.344h43.776c0.3328 0 0.512-0.4608 0.1536-0.64a77.3632 77.3632 0 0 0-11.136-5.1968c-7.0144-2.4832-8.96-4.1984-8.96-4.1984v-14.8992s8.96-7.5776 14.976-12.2112c5.9904-4.6592 15.6928-17.408 15.6928-28.1344 0-10.7008-3.968-27.8784-3.968-27.8784h-59.6224s-4.2496 23.8336-2.048 33.8432c3.7376 12.7488 15.0016 21.9648 20.736 27.2384 5.6832 5.2224 8.4992 7.4752 8.4992 7.4752v15.2576l-18.3296 8.2944c-0.512 0.2304-0.3584 1.0496 0.256 1.0496m189.2352-98.2272s-8.0896-1.8432-13.9776 0.6144c-7.7568 3.2-8.5248 13.9776-8.5248 13.9776s7.2192 4.1984 14.7456-1.4848c7.5776-5.632 7.7568-13.1072 7.7568-13.1072m-55.7568-5.12s10.7008-2.432 18.5088 0.768c10.24 4.2496 11.2384 18.56 11.2384 18.56s-9.472 5.4528-19.456-2.048c-10.0096-7.5008-10.2912-17.28-10.2912-17.28" fill="#F40009" p-id="4548"></path><path d="M436.9664 385.9968l19.456-41.5232 15.0016 40.4992 16 2.048v14.2592l24.448-5.0176-17.7152-50.5088 47.4112 20.0192-11.0336 33.7152 23.0656-5.248 20.48-49.7664 33.7664 26.3168-33.28 25.7024 33.28-0.2304 8.192 25.728h-21.248l-7.5008 31.0272 27.2384 5.6576 8.7552 24.576-32.4864 3.7376-7.4752 52.224-17.7408 11.5712-11.264-66.0224-21.4016-1.536-13.3632 56.32-18.688 11.2384-2.176-64.0256-16-1.7664-6.272-19.5328-7.2704 9.5488-9.984 76.9792-39.68-28.2624 25.472-7.2192-4.7104-37.0432-13.9776 11.776-12.032-40.0128 27.7504-4.4544-3.2768-28.0064-8.2432-1.792-13.2608-24.2176z" fill="#FFFFFF" p-id="4549"></path><path d="M539.0848 427.4688l20.2496-4.4544 2.816 28.4672-27.52 5.2992 4.4544-29.3376v0.0256z m-60.16-19.712l-7.7568 10.24-3.9424 28.7744 23.9616-1.4336-7.2448 15.8976 23.9616-8.4992-5.3504-24.96-16.128-4.5312-7.5008-15.488z" fill="#F40009" p-id="4550"></path></svg>