<svg xmlns="http://www.w3.org/2000/svg" xmlns:xlink="http://www.w3.org/1999/xlink" viewBox="0 0 246 250.16"><defs><style>.cls-1{fill:none;}.cls-2{isolation:isolate;}.cls-3{fill:#fff;stroke:#000;}.cls-4{clip-path:url(#clip-path);}.cls-11,.cls-12,.cls-13,.cls-14,.cls-15,.cls-5,.cls-6,.cls-7,.cls-8,.cls-9{mix-blend-mode:multiply;}.cls-5{fill:url(#linear-gradient);}.cls-6{fill:url(#linear-gradient-2);}.cls-7{fill:url(#linear-gradient-3);}.cls-8{fill:url(#linear-gradient-4);}.cls-9{fill:url(#linear-gradient-5);}.cls-10{clip-path:url(#clip-path-2);}.cls-11{fill:url(#linear-gradient-6);}.cls-12{fill:url(#linear-gradient-7);}.cls-13{fill:url(#linear-gradient-8);}.cls-14{fill:url(#linear-gradient-9);}.cls-15{fill:url(#linear-gradient-10);}</style><clipPath id="clip-path"><rect class="cls-1" width="245.33" height="92.74"/></clipPath><linearGradient id="linear-gradient" x1="66.88" y1="5.38" x2="110.34" y2="235.27" gradientUnits="userSpaceOnUse"><stop offset="0" stop-color="#f9c2ca"/><stop offset="0.26" stop-color="#f9c2ca"/><stop offset="0.42" stop-color="#f9c2ca"/><stop offset="0.68" stop-color="#f22222"/><stop offset="1" stop-color="#f22222"/></linearGradient><linearGradient id="linear-gradient-2" x1="-120.72" y1="-5.49" x2="-77.26" y2="224.39" gradientTransform="matrix(0.22, 0.97, -0.97, 0.22, 246.09, 160.5)" xlink:href="#linear-gradient"/><linearGradient id="linear-gradient-3" x1="-172.76" y1="174.76" x2="-129.29" y2="404.65" gradientTransform="matrix(-0.9, 0.44, -0.44, -0.9, 145.04, 435.85)" xlink:href="#linear-gradient"/><linearGradient id="linear-gradient-4" x1="-9.52" y1="266.27" x2="33.94" y2="496.16" gradientTransform="translate(-146.83 398.61) rotate(-128.76)" xlink:href="#linear-gradient"/><linearGradient id="linear-gradient-5" x1="116.18" y1="126.33" x2="159.64" y2="356.2" gradientTransform="matrix(0.62, -0.78, 0.78, 0.62, -174.78, 106.59)" xlink:href="#linear-gradient"/><clipPath id="clip-path-2"><rect class="cls-1" x="0.67" y="157.43" width="245.33" height="92.74"/></clipPath><linearGradient id="linear-gradient-6" x1="66.88" y1="4.38" x2="110.34" y2="234.27" xlink:href="#linear-gradient"/><linearGradient id="linear-gradient-7" x1="-121.7" y1="-5.72" x2="-78.24" y2="224.17" gradientTransform="matrix(0.22, 0.97, -0.97, 0.22, 246.09, 160.5)" xlink:href="#linear-gradient"/><linearGradient id="linear-gradient-8" x1="-173.19" y1="175.66" x2="-129.73" y2="405.55" gradientTransform="matrix(-0.9, 0.44, -0.44, -0.9, 145.04, 435.85)" xlink:href="#linear-gradient"/><linearGradient id="linear-gradient-9" x1="-8.74" y1="266.89" x2="34.72" y2="496.78" gradientTransform="translate(-146.83 398.61) rotate(-128.76)" xlink:href="#linear-gradient"/><linearGradient id="linear-gradient-10" x1="116.96" y1="125.71" x2="160.42" y2="355.58" gradientTransform="matrix(0.62, -0.78, 0.78, 0.62, -174.78, 106.59)" xlink:href="#linear-gradient"/></defs><g class="cls-2"><g id="Layer_1" data-name="Layer 1"><circle class="cls-3" cx="123" cy="122.53" r="103.24"/><g class="cls-4"><path class="cls-5" d="M50.54,122.4a95.85,95.85,0,0,1,84.12-95.13,95.85,95.85,0,1,0-11.73,191,96.71,96.71,0,0,0,11.73-.72A95.85,95.85,0,0,1,50.54,122.4Z"/><path class="cls-6" d="M106.75,51.84a95.86,95.86,0,0,1,111.52,60.72A97.91,97.91,0,0,0,216.35,101,95.85,95.85,0,1,0,32.83,155.09,95.85,95.85,0,0,1,106.75,51.84Z"/><path class="cls-7" d="M188.08,90.85a95.87,95.87,0,0,1-34.25,122.28,99.08,99.08,0,0,0,10.87-4.47A95.85,95.85,0,0,0,81.16,36.13a97.21,97.21,0,0,0-10.25,5.76A95.86,95.86,0,0,1,188.08,90.85Z"/><path class="cls-8" d="M168.24,178.84a95.86,95.86,0,0,1-126.84-6,98.13,98.13,0,0,0,6.78,9.59A95.84,95.84,0,1,0,189.77,53.7,95.85,95.85,0,0,1,168.24,178.84Z"/><path class="cls-9" d="M78,179.18a95.85,95.85,0,0,1-22.46-125A94,94,0,0,0,47.74,63,95.84,95.84,0,1,0,204.83,172.19,95.86,95.86,0,0,1,78,179.18Z"/></g><g class="cls-10"><path class="cls-11" d="M50.54,121.4a95.85,95.85,0,0,1,84.12-95.13,95.85,95.85,0,1,0-11.73,191,96.71,96.71,0,0,0,11.73-.72A95.85,95.85,0,0,1,50.54,121.4Z"/><path class="cls-12" d="M106.75,50.84a95.86,95.86,0,0,1,111.52,60.72A97.91,97.91,0,0,0,216.35,100,95.85,95.85,0,1,0,32.83,154.09,95.85,95.85,0,0,1,106.75,50.84Z"/><path class="cls-13" d="M188.08,89.85a95.87,95.87,0,0,1-34.25,122.28,99.08,99.08,0,0,0,10.87-4.47A95.85,95.85,0,0,0,81.16,35.13a97.21,97.21,0,0,0-10.25,5.76A95.86,95.86,0,0,1,188.08,89.85Z"/><path class="cls-14" d="M168.24,177.84a95.86,95.86,0,0,1-126.84-6,98.13,98.13,0,0,0,6.78,9.59A95.84,95.84,0,1,0,189.77,52.7,95.85,95.85,0,0,1,168.24,177.84Z"/><path class="cls-15" d="M78,178.18a95.85,95.85,0,0,1-22.46-125A94,94,0,0,0,47.74,62,95.84,95.84,0,1,0,204.83,171.19,95.86,95.86,0,0,1,78,178.18Z"/></g><path d="M50.19,138.1h9.12a2.38,2.38,0,0,1,2.49,1.71l.85,2.57a1.62,1.62,0,0,0,1.64,1.14H68.5a1.74,1.74,0,0,0,1.71-1l3-5.41c.5-.93.07-1.71-1-1.71H45.77c-.71,0-1.07.35-1.71.85a2.56,2.56,0,0,1-1.71.5H33.3a1.66,1.66,0,0,1-1.71-2.49l1.57-4a2.12,2.12,0,0,0-.07-1.86c-.71-1.49-.07-2.49,1.57-2.49h11c1.57,0,2.42.57,2.14,1.35s.28,1.36,1.28,1.36H85.38a2,2,0,0,1,2.14,2.13v5.92a4.84,4.84,0,0,1-.71,2.63l-5.2,9.48A2.77,2.77,0,0,1,79,150.28H32.8a1.94,1.94,0,0,1-2.13-2.13v-2.5a1.94,1.94,0,0,1,2.13-2.13h15A1.11,1.11,0,0,0,49,141.88l-.5-1.35C48,139,48.62,138.1,50.19,138.1Zm-2.42-36.55c-.36.86.14,1.36,1.21,1.36h36.4a2,2,0,0,1,2.14,2.14V111a4.84,4.84,0,0,1-.71,2.63l-5.2,9.48a2.78,2.78,0,0,1-2.57,1.5H34.16A2,2,0,0,1,32,122.43v-2.49a2,2,0,0,1,2.14-2.14h13a1.1,1.1,0,0,0,1.14-1.64l-.49-1.35c-.5-1.5.14-2.43,1.7-2.43h9.12a2.39,2.39,0,0,1,2.5,1.71l.85,2.57a1.62,1.62,0,0,0,1.64,1.14H68.5a1.74,1.74,0,0,0,1.71-1l3-5.41c.5-.93.07-1.71-1-1.71H45.77c-.71,0-1.14.42-1.78.92a2.63,2.63,0,0,1-1.64.43H33.3a1.66,1.66,0,0,1-1.71-2.49l1.57-4a2.12,2.12,0,0,0-.07-1.86c-.71-1.49-.07-2.49,1.57-2.49h11C47.2,100.2,48.05,100.77,47.77,101.55Z"/><path d="M115.73,138.1h9.12a2.38,2.38,0,0,1,2.49,1.71l.85,2.57a1.62,1.62,0,0,0,1.64,1.14H134a1.74,1.74,0,0,0,1.71-1l3-5.41c.5-.93.07-1.71-1-1.71H111.31c-.71,0-1.07.35-1.71.85a2.56,2.56,0,0,1-1.71.5h-9a1.66,1.66,0,0,1-1.71-2.49l1.57-4a2.16,2.16,0,0,0-.07-1.86c-.71-1.49-.07-2.49,1.57-2.49h11c1.56,0,2.42.57,2.13,1.35s.29,1.36,1.29,1.36h36.33a2,2,0,0,1,2.14,2.13v5.92a4.93,4.93,0,0,1-.71,2.63l-5.2,9.48a2.78,2.78,0,0,1-2.57,1.49H98.34a1.94,1.94,0,0,1-2.13-2.13v-2.5a1.94,1.94,0,0,1,2.13-2.13h15a1.11,1.11,0,0,0,1.14-1.64l-.5-1.35C113.52,139,114.16,138.1,115.73,138.1Zm-2.43-36.55c-.35.86.15,1.36,1.22,1.36h36.4a2,2,0,0,1,2.14,2.14V111a4.93,4.93,0,0,1-.71,2.63l-5.2,9.48a2.79,2.79,0,0,1-2.57,1.5H99.7a2,2,0,0,1-2.14-2.14v-2.49a2,2,0,0,1,2.14-2.14h13a1.1,1.1,0,0,0,1.14-1.64l-.5-1.35c-.49-1.5.15-2.43,1.71-2.43h9.12a2.39,2.39,0,0,1,2.5,1.71l.85,2.57a1.62,1.62,0,0,0,1.64,1.14H134a1.74,1.74,0,0,0,1.71-1l3-5.41c.5-.93.07-1.71-1-1.71H111.31c-.71,0-1.14.42-1.78.92a2.63,2.63,0,0,1-1.64.43h-9a1.66,1.66,0,0,1-1.71-2.49l1.57-4a2.16,2.16,0,0,0-.07-1.86c-.71-1.49-.07-2.49,1.57-2.49h11C112.73,100.2,113.59,100.77,113.3,101.55Z"/><path d="M163.74,101.55h52.58a2,2,0,0,1,2.14,2.14v2.5a2,2,0,0,1-2.14,2.13h-1.85a1.28,1.28,0,0,0-1.43,1.43v12a1.28,1.28,0,0,0,1.43,1.42h3.2a2,2,0,0,1,2.14,2.14v2.49a2,2,0,0,1-2.14,2.14h-3.2a1.28,1.28,0,0,0-1.43,1.43v18a2,2,0,0,1-2.14,2.14h-9.26a2,2,0,0,1-2.14-2.14v-18a1.28,1.28,0,0,0-1.42-1.43H181.27a1.39,1.39,0,0,0-1.57,1.28l-2.92,18.31a2,2,0,0,1-2.28,1.93h-9.19a1.8,1.8,0,0,1-2-2.28l2.85-17.74a1.22,1.22,0,0,0-1.35-1.5h-2.42a2,2,0,0,1-2.14-2.14v-2.49a2,2,0,0,1,2.14-2.14H166a1.38,1.38,0,0,0,1.57-1.28l1.92-12.11a1.23,1.23,0,0,0-1.35-1.5h-4.42a2,2,0,0,1-2.14-2.13v-2.5A2,2,0,0,1,163.74,101.55Zm19.31,8.06-1.93,12.11a1.23,1.23,0,0,0,1.36,1.49h15.6a1.27,1.27,0,0,0,1.42-1.42v-12a1.28,1.28,0,0,0-1.42-1.43H184.61A1.39,1.39,0,0,0,183.05,109.61Z"/></g></g></svg>