<svg xmlns="http://www.w3.org/2000/svg" xmlns:xlink="http://www.w3.org/1999/xlink" viewBox="0 0 200 200"><defs><style>.cls-1{fill:none;}.cls-2{isolation:isolate;}.cls-3{clip-path:url(#clip-path);}.cls-10,.cls-11,.cls-12,.cls-13,.cls-14,.cls-4,.cls-5,.cls-6,.cls-7,.cls-8{mix-blend-mode:multiply;}.cls-4{fill:url(#linear-gradient);}.cls-5{fill:url(#linear-gradient-2);}.cls-6{fill:url(#linear-gradient-3);}.cls-7{fill:url(#linear-gradient-4);}.cls-8{fill:url(#linear-gradient-5);}.cls-9{clip-path:url(#clip-path-2);}.cls-10{fill:url(#linear-gradient-6);}.cls-11{fill:url(#linear-gradient-7);}.cls-12{fill:url(#linear-gradient-8);}.cls-13{fill:url(#linear-gradient-9);}.cls-14{fill:url(#linear-gradient-10);}</style><clipPath id="clip-path"><rect class="cls-1" x="-23.33" y="-23.21" width="245.33" height="92.74"/></clipPath><linearGradient id="linear-gradient" x1="43.55" y1="-17.83" x2="87.01" y2="212.06" gradientUnits="userSpaceOnUse"><stop offset="0" stop-color="#EF7C1B"/><stop offset="0.26" stop-color="#EF7C1B"/><stop offset="0.42" stop-color="#EF7C1B"/><stop offset="0.68" stop-color="#D2691E"/><stop offset="1" stop-color="#D2691E"/></linearGradient><linearGradient id="linear-gradient-2" x1="-144.06" y1="-28.7" x2="-100.6" y2="201.18" gradientTransform="matrix(0.22, 0.97, -0.97, 0.22, 205.35, 165.22)" xlink:href="#linear-gradient"/><linearGradient id="linear-gradient-3" x1="-196.09" y1="151.54" x2="-152.63" y2="381.44" gradientTransform="matrix(-0.9, 0.44, -0.44, -0.9, 90.59, 401.92)" xlink:href="#linear-gradient"/><linearGradient id="linear-gradient-4" x1="-32.86" y1="243.05" x2="10.61" y2="472.94" gradientTransform="translate(-166.67 342.67) rotate(-128.76)" xlink:href="#linear-gradient"/><linearGradient id="linear-gradient-5" x1="92.84" y1="103.11" x2="136.3" y2="332.99" gradientTransform="matrix(0.62, -0.78, 0.78, 0.62, -165.43, 79.47)" xlink:href="#linear-gradient"/><clipPath id="clip-path-2"><rect class="cls-1" x="-22.67" y="134.22" width="245.33" height="92.74"/></clipPath><linearGradient id="linear-gradient-6" x1="43.55" y1="-18.83" x2="87.01" y2="211.06" xlink:href="#linear-gradient"/><linearGradient id="linear-gradient-7" x1="-145.03" y1="-28.93" x2="-101.57" y2="200.95" gradientTransform="matrix(0.22, 0.97, -0.97, 0.22, 205.35, 165.22)" xlink:href="#linear-gradient"/><linearGradient id="linear-gradient-8" x1="-196.53" y1="152.44" x2="-153.06" y2="382.34" gradientTransform="matrix(-0.9, 0.44, -0.44, -0.9, 90.59, 401.92)" xlink:href="#linear-gradient"/><linearGradient id="linear-gradient-9" x1="-32.08" y1="243.68" x2="11.39" y2="473.57" gradientTransform="translate(-166.67 342.67) rotate(-128.76)" xlink:href="#linear-gradient"/><linearGradient id="linear-gradient-10" x1="93.63" y1="102.49" x2="137.09" y2="332.37" gradientTransform="matrix(0.62, -0.78, 0.78, 0.62, -165.43, 79.47)" xlink:href="#linear-gradient"/></defs><g class="cls-2"><g id="Layer_1" data-name="Layer 1"><g class="cls-3"><path class="cls-4" d="M27.21,99.18A95.86,95.86,0,0,1,111.32,4.05,95.85,95.85,0,1,0,99.59,195a96.46,96.46,0,0,0,11.73-.72A95.85,95.85,0,0,1,27.21,99.18Z"/><path class="cls-5" d="M83.41,28.63A95.86,95.86,0,0,1,194.94,89.35,95.85,95.85,0,1,0,6.18,120.61,94.56,94.56,0,0,0,9.5,131.88,95.86,95.86,0,0,1,83.41,28.63Z"/><path class="cls-6" d="M164.74,67.64a95.86,95.86,0,0,1-34.25,122.28,97.49,97.49,0,0,0,10.87-4.47A95.84,95.84,0,1,0,57.83,12.92a97.93,97.93,0,0,0-10.25,5.75A95.85,95.85,0,0,1,164.74,67.64Z"/><path class="cls-7" d="M144.91,155.63a95.85,95.85,0,0,1-126.84-6A95.84,95.84,0,1,0,174.34,39.19a96.75,96.75,0,0,0-7.9-8.7A95.86,95.86,0,0,1,144.91,155.63Z"/><path class="cls-8" d="M54.7,156A95.86,95.86,0,0,1,32.24,31,95.85,95.85,0,1,0,174.78,158.62a95.18,95.18,0,0,0,6.71-9.64A95.87,95.87,0,0,1,54.7,156Z"/></g><g class="cls-9"><path class="cls-10" d="M27.21,98.18A95.86,95.86,0,0,1,111.32,3.05,95.85,95.85,0,1,0,99.59,194a96.46,96.46,0,0,0,11.73-.72A95.85,95.85,0,0,1,27.21,98.18Z"/><path class="cls-11" d="M83.41,27.63A95.86,95.86,0,0,1,194.94,88.35,95.85,95.85,0,1,0,6.18,119.61,94.56,94.56,0,0,0,9.5,130.88,95.86,95.86,0,0,1,83.41,27.63Z"/><path class="cls-12" d="M164.74,66.64a95.86,95.86,0,0,1-34.25,122.28,97.49,97.49,0,0,0,10.87-4.47A95.84,95.84,0,1,0,57.83,11.92a97.93,97.93,0,0,0-10.25,5.75A95.85,95.85,0,0,1,164.74,66.64Z"/><path class="cls-13" d="M144.91,154.63a95.85,95.85,0,0,1-126.84-6A95.84,95.84,0,1,0,174.34,38.19a96.75,96.75,0,0,0-7.9-8.7A95.86,95.86,0,0,1,144.91,154.63Z"/><path class="cls-14" d="M54.7,155A95.86,95.86,0,0,1,32.24,30,95.85,95.85,0,1,0,174.78,157.62a95.18,95.18,0,0,0,6.71-9.64A95.87,95.87,0,0,1,54.7,155Z"/></g><path d="M26.85,114.89H36a2.39,2.39,0,0,1,2.5,1.71l.85,2.56A1.61,1.61,0,0,0,41,120.3h4.2a1.72,1.72,0,0,0,1.71-1l3-5.42c.49-.92.07-1.71-1-1.71H22.44c-.72,0-1.07.36-1.71.86a2.62,2.62,0,0,1-1.71.5H10c-1.57,0-2.28-1-1.71-2.5l1.57-4a2.14,2.14,0,0,0-.07-1.85c-.72-1.49-.08-2.49,1.56-2.49h11c1.57,0,2.43.57,2.14,1.35s.29,1.35,1.28,1.35H62.05a2,2,0,0,1,2.14,2.14v5.91a4.88,4.88,0,0,1-.72,2.64l-5.2,9.48a2.77,2.77,0,0,1-2.56,1.49H9.47a2,2,0,0,1-2.14-2.13v-2.5a2,2,0,0,1,2.14-2.14h15a1.1,1.1,0,0,0,1.14-1.63l-.5-1.36C24.65,115.82,25.29,114.89,26.85,114.89ZM24.43,78.34c-.35.86.14,1.36,1.21,1.36H62.05a2,2,0,0,1,2.14,2.13v5.92a4.87,4.87,0,0,1-.72,2.63l-5.2,9.48a2.76,2.76,0,0,1-2.56,1.49H10.82a1.94,1.94,0,0,1-2.13-2.13v-2.5a1.94,1.94,0,0,1,2.13-2.13h13A1.11,1.11,0,0,0,24.93,93l-.5-1.36c-.5-1.49.14-2.42,1.71-2.42h9.12a2.38,2.38,0,0,1,2.49,1.71l.86,2.57a1.6,1.6,0,0,0,1.64,1.14h4.91a1.72,1.72,0,0,0,1.71-1l3-5.42c.49-.92.07-1.71-1-1.71H22.44c-.72,0-1.14.43-1.78.93a2.63,2.63,0,0,1-1.64.43H10c-1.57,0-2.28-1-1.71-2.5l1.57-4a2.14,2.14,0,0,0-.07-1.85C9,78,9.68,77,11.32,77h11C23.86,77,24.72,77.56,24.43,78.34Z"/><path d="M92.39,114.89h9.12a2.39,2.39,0,0,1,2.5,1.71l.85,2.56a1.61,1.61,0,0,0,1.64,1.14h4.2a1.72,1.72,0,0,0,1.71-1l3-5.42c.49-.92.07-1.71-1-1.71H88c-.72,0-1.07.36-1.71.86a2.62,2.62,0,0,1-1.71.5h-9c-1.57,0-2.28-1-1.71-2.5l1.57-4a2.14,2.14,0,0,0-.07-1.85c-.72-1.49-.08-2.49,1.56-2.49h11c1.57,0,2.43.57,2.14,1.35s.29,1.35,1.28,1.35h36.34a2,2,0,0,1,2.13,2.14v5.91a4.87,4.87,0,0,1-.71,2.64l-5.2,9.48a2.77,2.77,0,0,1-2.56,1.49H75a2,2,0,0,1-2.14-2.13v-2.5A2,2,0,0,1,75,120.3H90a1.1,1.1,0,0,0,1.14-1.63l-.5-1.36C90.18,115.82,90.83,114.89,92.39,114.89ZM90,78.34c-.35.86.14,1.36,1.21,1.36h36.41a1.94,1.94,0,0,1,2.13,2.13v5.92a4.86,4.86,0,0,1-.71,2.63l-5.2,9.48a2.76,2.76,0,0,1-2.56,1.49H76.36a1.94,1.94,0,0,1-2.13-2.13v-2.5a1.94,1.94,0,0,1,2.13-2.13h13A1.11,1.11,0,0,0,90.47,93L90,91.59c-.5-1.49.14-2.42,1.71-2.42h9.12a2.38,2.38,0,0,1,2.49,1.71l.86,2.57a1.6,1.6,0,0,0,1.64,1.14h4.91a1.72,1.72,0,0,0,1.71-1l3-5.42c.49-.92.07-1.71-1-1.71H88c-.72,0-1.14.43-1.78.93a2.63,2.63,0,0,1-1.64.43h-9c-1.57,0-2.28-1-1.71-2.5l1.57-4a2.14,2.14,0,0,0-.07-1.85C74.58,78,75.22,77,76.86,77h11C89.4,77,90.26,77.56,90,78.34Z"/><path d="M140.41,78.34H193a2,2,0,0,1,2.14,2.14V83A2,2,0,0,1,193,85.11h-1.85a1.28,1.28,0,0,0-1.42,1.43v12a1.28,1.28,0,0,0,1.42,1.42h3.21a2,2,0,0,1,2.14,2.14v2.49a2,2,0,0,1-2.14,2.14h-3.21a1.28,1.28,0,0,0-1.42,1.42v18a2,2,0,0,1-2.14,2.13h-9.26a2,2,0,0,1-2.14-2.13v-18a1.28,1.28,0,0,0-1.42-1.42H157.93a1.38,1.38,0,0,0-1.56,1.28l-2.93,18.31a2,2,0,0,1-2.27,1.92H142a1.79,1.79,0,0,1-2-2.28l2.85-17.74a1.22,1.22,0,0,0-1.35-1.49h-2.43a2,2,0,0,1-2.13-2.14v-2.49a2,2,0,0,1,2.13-2.14h3.64a1.39,1.39,0,0,0,1.56-1.28l1.93-12.11a1.23,1.23,0,0,0-1.36-1.5h-4.41A2,2,0,0,1,138.27,83V80.48A2,2,0,0,1,140.41,78.34Zm19.3,8L157.79,98.5a1.23,1.23,0,0,0,1.35,1.5h15.61a1.28,1.28,0,0,0,1.42-1.42v-12a1.28,1.28,0,0,0-1.42-1.43H161.28A1.4,1.4,0,0,0,159.71,86.39Z"/></g></g></svg>